<svg width="64" height="50" viewBox="0 0 64 50" fill="none" xmlns="http://www.w3.org/2000/svg">
<path d="M14.4709 0C18.648 0 22.0793 1.32353 24.7646 3.97059C27.4499 6.51961 28.7925 9.90196 28.7925 14.1176C28.7925 16.0784 28.5439 18.0392 28.0466 20C27.5493 21.9608 26.5051 24.902 24.9138 28.8235L16.2611 50H1.49184L7.90676 26.7647C5.42036 25.6863 3.48096 24.0686 2.08858 21.9118C0.696193 19.7549 0 17.1569 0 14.1176C0 9.90196 1.34266 6.51961 4.02797 3.97059C6.81274 1.32353 10.2937 0 14.4709 0ZM49.6783 0C53.8555 0 57.2867 1.32353 59.972 3.97059C62.6573 6.51961 64 9.90196 64 14.1176C64 16.0784 63.7514 18.0392 63.2541 20C62.7568 21.9608 61.7125 24.902 60.1212 28.8235L51.4685 50H36.6993L43.1142 26.7647C40.6278 25.6863 38.6884 24.0686 37.296 21.9118C35.9037 19.7549 35.2075 17.1569 35.2075 14.1176C35.2075 9.90196 36.5501 6.51961 39.2354 3.97059C42.0202 1.32353 45.5012 0 49.6783 0Z" fill="white"/>
</svg>
